<svg clip-rule="evenodd" fill-rule="evenodd" image-rendering="optimizeQuality"
     shape-rendering="geometricPrecision" text-rendering="geometricPrecision" viewBox="0 0 450 416.96"
     width="1.93391in" xmlns="http://www.w3.org/2000/svg">
    <g fill="#fff">
        <path d="m30.3 4.82.16.15.16.15.15.15 130.42 126.71 63 60.74 194.64-187.65c1.79-1.61 3.87-2.9 6.13-3.77 7.27-2.8 15.24-.97 20.86 4.39 3.56 3.39 5.9 8.05 5.9 13.17v358.73c0 18.44-15.09 33.54-33.53 33.54h-384.67c-18.44 0-33.53-15.09-33.53-33.54v-359.55-.01c0-9.97 8.07-18.04 18.02-18.04 4.75 0 9.06 1.83 12.28 4.82zm57.84 182.18c-12.29-26.78 11.37-52.97 38.46-48.98 5.82.85 11.53 3.31 16.47 7.61l81.25 78.32c63.35-60.98 125.47-123.27 189.83-183.2 2.19-2.06 4.97-3.21 8.02-3.21 6.47 0 11.63 5.26 11.63 11.63v68.68c-60.09 59.88-121.51 125.38-182.86 181.17-4.56 3.84-8.93 6.96-13.15 9.23-9.2 4.92-16.74 5.71-26.28 1.33-3.96-1.81-8.05-4.53-12.31-8.19l-100.94-99.6c-4.6-5.01-7.89-9.96-10.11-14.79z"/>
    </g>
</svg>